<svg width="10" height="11" viewBox="0 0 10 11" fill="none" xmlns="http://www.w3.org/2000/svg">
<g clip-path="url(#clip0_246_33)">
<path d="M5.27442 8.08639L9.88692 3.4611C10.038 3.30956 10.0377 3.06421 9.88614 2.91292C9.73459 2.76175 9.48911 2.76214 9.33795 2.9137L4.99998 7.26368L0.662032 2.91354C0.510861 2.762 0.26553 2.76161 0.113968 2.91276C0.0379915 2.9886 2.86102e-06 3.08796 2.86102e-06 3.18731C2.86102e-06 3.28641 0.0377378 3.38538 0.113187 3.46108L4.72557 8.08639C4.79819 8.15938 4.89701 8.20034 4.99998 8.20034C5.10295 8.20034 5.20166 8.15926 5.27442 8.08639Z" fill="black"/>
</g>
<defs>
<clipPath id="clip0_246_33">
<rect width="10" height="10" fill="white" transform="matrix(0 1 -1 0 10 0.5)"/>
</clipPath>
</defs>
</svg>
