<svg width="50" height="20.3" viewBox="0 0 101 41" fill="none" xmlns="http://www.w3.org/2000/svg">
<g clip-path="url(#clip0_204_81)">
<path d="M20.2078 19.7498C22.9211 19.7498 25.2706 18.7767 27.1903 16.8567C29.11 14.937 30.0831 12.5882 30.0831 9.87459C30.0831 7.16196 29.11 4.8128 27.19 2.8925C25.27 0.973133 22.9208 0 20.2078 0C17.4943 0 15.1454 0.973133 13.2257 2.89281C11.306 4.81249 10.3326 7.16165 10.3326 9.87459C10.3326 12.5882 11.306 14.9373 13.226 16.857C15.146 18.7764 17.4952 19.7498 20.2078 19.7498Z" fill="#D2D2D2"/>
<path d="M37.4869 31.5269C37.4315 30.728 37.3195 29.8565 37.1547 28.9363C36.9883 28.0091 36.774 27.1326 36.5175 26.3315C36.2526 25.5035 35.8922 24.6859 35.4468 23.9023C34.9844 23.089 34.4414 22.3808 33.8321 21.7981C33.1949 21.1884 32.4147 20.6982 31.5126 20.3407C30.6136 19.9851 29.6173 19.8049 28.5516 19.8049C28.1331 19.8049 27.7283 19.9766 26.9466 20.4855C26.4655 20.7993 25.9028 21.1621 25.2747 21.5635C24.7376 21.9057 24.01 22.2263 23.1113 22.5166C22.2345 22.8003 21.3443 22.9442 20.4656 22.9442C19.5869 22.9442 18.697 22.8003 17.8193 22.5166C16.9215 22.2266 16.1939 21.906 15.6575 21.5638C15.0353 21.1662 14.4722 20.8033 13.984 20.4852C13.2032 19.9763 12.7981 19.8046 12.3796 19.8046C11.3135 19.8046 10.3176 19.9851 9.41888 20.341C8.51737 20.6979 7.73692 21.1881 7.09911 21.7984C6.49008 22.3814 5.94674 23.0893 5.48504 23.9023C5.03992 24.6859 4.67957 25.5032 4.41431 26.3318C4.15812 27.1329 3.94385 28.0091 3.77744 28.9363C3.61259 29.8553 3.5006 30.7271 3.44524 31.5278C3.39081 32.3123 3.36328 33.1266 3.36328 33.9489C3.36328 36.0891 4.04363 37.8218 5.38525 39.0996C6.7103 40.3605 8.46357 41.0002 10.5956 41.0002H30.3374C32.4695 41.0002 34.2221 40.3608 35.5475 39.0996C36.8894 37.8227 37.5698 36.0898 37.5698 33.9486C37.5695 33.1225 37.5416 32.3077 37.4869 31.5269Z" fill="#D2D2D2"/>
</g>
<g clip-path="url(#clip1_204_81)">
<path d="M40.2078 19.7498C42.9211 19.7498 45.2706 18.7767 47.1903 16.8567C49.11 14.937 50.0831 12.5882 50.0831 9.87459C50.0831 7.16196 49.11 4.8128 47.19 2.8925C45.27 0.973133 42.9208 0 40.2078 0C37.4943 0 35.1454 0.973133 33.2257 2.89281C31.306 4.81249 30.3326 7.16165 30.3326 9.87459C30.3326 12.5882 31.306 14.9373 33.226 16.857C35.146 18.7764 37.4952 19.7498 40.2078 19.7498Z" fill="#B9B9B9"/>
<path d="M57.4869 31.5269C57.4315 30.728 57.3195 29.8565 57.1547 28.9363C56.9883 28.0091 56.774 27.1326 56.5175 26.3315C56.2526 25.5035 55.8922 24.6859 55.4468 23.9023C54.9844 23.089 54.4414 22.3808 53.8321 21.7981C53.1949 21.1884 52.4147 20.6982 51.5126 20.3407C50.6136 19.9851 49.6173 19.8049 48.5516 19.8049C48.1331 19.8049 47.7283 19.9766 46.9466 20.4855C46.4655 20.7993 45.9028 21.1621 45.2747 21.5635C44.7376 21.9057 44.01 22.2263 43.1113 22.5166C42.2345 22.8003 41.3443 22.9442 40.4656 22.9442C39.5869 22.9442 38.697 22.8003 37.8193 22.5166C36.9215 22.2266 36.1939 21.906 35.6575 21.5638C35.0353 21.1662 34.4722 20.8033 33.984 20.4852C33.2032 19.9763 32.7981 19.8046 32.3796 19.8046C31.3135 19.8046 30.3176 19.9851 29.4189 20.341C28.5174 20.6979 27.7369 21.1881 27.0991 21.7984C26.4901 22.3814 25.9467 23.0893 25.485 23.9023C25.0399 24.6859 24.6796 25.5032 24.4143 26.3318C24.1581 27.1329 23.9438 28.0091 23.7774 28.9363C23.6126 29.8553 23.5006 30.7271 23.4452 31.5278C23.3908 32.3123 23.3633 33.1266 23.3633 33.9489C23.3633 36.0891 24.0436 37.8218 25.3853 39.0996C26.7103 40.3605 28.4636 41.0002 30.5956 41.0002H50.3374C52.4695 41.0002 54.2221 40.3608 55.5475 39.0996C56.8894 37.8227 57.5698 36.0898 57.5698 33.9486C57.5695 33.1225 57.5416 32.3077 57.4869 31.5269Z" fill="#B9B9B9"/>
</g>
<g clip-path="url(#clip2_204_81)">
<path d="M60.2078 19.7498C62.9211 19.7498 65.2706 18.7767 67.1903 16.8567C69.11 14.937 70.0831 12.5882 70.0831 9.87459C70.0831 7.16196 69.11 4.8128 67.19 2.8925C65.27 0.973133 62.9208 0 60.2078 0C57.4943 0 55.1454 0.973133 53.2257 2.89281C51.306 4.81249 50.3326 7.16165 50.3326 9.87459C50.3326 12.5882 51.306 14.9373 53.226 16.857C55.146 18.7764 57.4952 19.7498 60.2078 19.7498Z" fill="#A6A6A6"/>
<path d="M77.4869 31.5269C77.4315 30.728 77.3195 29.8565 77.1547 28.9363C76.9883 28.0091 76.774 27.1326 76.5175 26.3315C76.2526 25.5035 75.8922 24.6859 75.4468 23.9023C74.9844 23.089 74.4414 22.3808 73.8321 21.7981C73.1949 21.1884 72.4147 20.6982 71.5126 20.3407C70.6136 19.9851 69.6173 19.8049 68.5516 19.8049C68.1331 19.8049 67.7283 19.9766 66.9466 20.4855C66.4655 20.7993 65.9028 21.1621 65.2747 21.5635C64.7376 21.9057 64.01 22.2263 63.1113 22.5166C62.2345 22.8003 61.3443 22.9442 60.4656 22.9442C59.5869 22.9442 58.697 22.8003 57.8193 22.5166C56.9215 22.2266 56.1939 21.906 55.6575 21.5638C55.0353 21.1662 54.4722 20.8033 53.984 20.4852C53.2032 19.9763 52.7981 19.8046 52.3796 19.8046C51.3135 19.8046 50.3176 19.9851 49.4189 20.341C48.5174 20.6979 47.7369 21.1881 47.0991 21.7984C46.4901 22.3814 45.9467 23.0893 45.485 23.9023C45.0399 24.6859 44.6796 25.5032 44.4143 26.3318C44.1581 27.1329 43.9438 28.0091 43.7774 28.9363C43.6126 29.8553 43.5006 30.7271 43.4452 31.5278C43.3908 32.3123 43.3633 33.1266 43.3633 33.9489C43.3633 36.0891 44.0436 37.8218 45.3853 39.0996C46.7103 40.3605 48.4636 41.0002 50.5956 41.0002H70.3374C72.4695 41.0002 74.2221 40.3608 75.5475 39.0996C76.8894 37.8227 77.5698 36.0898 77.5698 33.9486C77.5695 33.1225 77.5416 32.3077 77.4869 31.5269Z" fill="#A6A6A6"/>
</g>
<g clip-path="url(#clip3_204_81)">
<path d="M80.2078 19.7498C82.9211 19.7498 85.2706 18.7767 87.1903 16.8567C89.11 14.937 90.0831 12.5882 90.0831 9.87459C90.0831 7.16196 89.11 4.8128 87.19 2.8925C85.27 0.973133 82.9208 0 80.2078 0C77.4943 0 75.1454 0.973133 73.2257 2.89281C71.306 4.81249 70.3326 7.16165 70.3326 9.87459C70.3326 12.5882 71.306 14.9373 73.226 16.857C75.146 18.7764 77.4952 19.7498 80.2078 19.7498Z" fill="#8D8D8D"/>
<path d="M97.4869 31.5269C97.4315 30.728 97.3195 29.8565 97.1547 28.9363C96.9883 28.0091 96.774 27.1326 96.5175 26.3315C96.2526 25.5035 95.8922 24.6859 95.4468 23.9023C94.9844 23.089 94.4414 22.3808 93.8321 21.7981C93.1949 21.1884 92.4147 20.6982 91.5126 20.3407C90.6136 19.9851 89.6173 19.8049 88.5516 19.8049C88.1331 19.8049 87.7283 19.9766 86.9466 20.4855C86.4655 20.7993 85.9028 21.1621 85.2747 21.5635C84.7376 21.9057 84.01 22.2263 83.1113 22.5166C82.2345 22.8003 81.3443 22.9442 80.4656 22.9442C79.5869 22.9442 78.697 22.8003 77.8193 22.5166C76.9215 22.2266 76.1939 21.906 75.6575 21.5638C75.0353 21.1662 74.4722 20.8033 73.984 20.4852C73.2032 19.9763 72.7981 19.8046 72.3796 19.8046C71.3135 19.8046 70.3176 19.9851 69.4189 20.341C68.5174 20.6979 67.7369 21.1881 67.0991 21.7984C66.4901 22.3814 65.9467 23.0893 65.485 23.9023C65.0399 24.6859 64.6796 25.5032 64.4143 26.3318C64.1581 27.1329 63.9438 28.0091 63.7774 28.9363C63.6126 29.8553 63.5006 30.7271 63.4452 31.5278C63.3908 32.3123 63.3633 33.1266 63.3633 33.9489C63.3633 36.0891 64.0436 37.8218 65.3853 39.0996C66.7103 40.3605 68.4636 41.0002 70.5956 41.0002H90.3374C92.4695 41.0002 94.2221 40.3608 95.5475 39.0996C96.8894 37.8227 97.5698 36.0898 97.5698 33.9486C97.5695 33.1225 97.5416 32.3077 97.4869 31.5269Z" fill="#8D8D8D"/>
</g>
<defs>
<clipPath id="clip0_204_81">
<rect width="41" height="41" fill="white"/>
</clipPath>
<clipPath id="clip1_204_81">
<rect width="41" height="41" fill="white" transform="translate(20)"/>
</clipPath>
<clipPath id="clip2_204_81">
<rect width="41" height="41" fill="white" transform="translate(40)"/>
</clipPath>
<clipPath id="clip3_204_81">
<rect width="41" height="41" fill="white" transform="translate(60)"/>
</clipPath>
</defs>
</svg>
