<svg width="21" height="21" viewBox="0 0 41 41" fill="none" xmlns="http://www.w3.org/2000/svg">
<g clip-path="url(#clip0_203_15)">
<path d="M20.2078 19.7498C22.9211 19.7498 25.2706 18.7767 27.1903 16.8567C29.11 14.937 30.0831 12.5882 30.0831 9.87459C30.0831 7.16196 29.11 4.8128 27.19 2.8925C25.27 0.973133 22.9208 0 20.2078 0C17.4943 0 15.1454 0.973133 13.2257 2.89281C11.306 4.81249 10.3326 7.16165 10.3326 9.87459C10.3326 12.5882 11.306 14.9373 13.226 16.857C15.146 18.7764 17.4952 19.7498 20.2078 19.7498Z" fill="#D2D2D2"/>
<path d="M37.4869 31.5269C37.4315 30.728 37.3195 29.8565 37.1547 28.9363C36.9883 28.0091 36.774 27.1326 36.5175 26.3315C36.2526 25.5035 35.8922 24.6859 35.4468 23.9023C34.9844 23.089 34.4414 22.3808 33.8321 21.7981C33.1949 21.1884 32.4147 20.6982 31.5126 20.3407C30.6136 19.9851 29.6173 19.8049 28.5516 19.8049C28.1331 19.8049 27.7283 19.9766 26.9466 20.4855C26.4655 20.7993 25.9028 21.1621 25.2747 21.5635C24.7376 21.9057 24.01 22.2263 23.1113 22.5166C22.2345 22.8003 21.3443 22.9442 20.4656 22.9442C19.5869 22.9442 18.697 22.8003 17.8193 22.5166C16.9215 22.2266 16.1939 21.906 15.6575 21.5638C15.0353 21.1662 14.4722 20.8033 13.984 20.4852C13.2032 19.9763 12.7981 19.8046 12.3796 19.8046C11.3135 19.8046 10.3176 19.9851 9.41888 20.341C8.51737 20.6979 7.73692 21.1881 7.09911 21.7984C6.49008 22.3814 5.94674 23.0893 5.48504 23.9023C5.03992 24.6859 4.67957 25.5032 4.41431 26.3318C4.15812 27.1329 3.94385 28.0091 3.77744 28.9363C3.61259 29.8553 3.5006 30.7271 3.44524 31.5278C3.39081 32.3123 3.36328 33.1266 3.36328 33.9489C3.36328 36.0891 4.04363 37.8218 5.38525 39.0996C6.7103 40.3605 8.46357 41.0002 10.5956 41.0002H30.3374C32.4695 41.0002 34.2221 40.3608 35.5475 39.0996C36.8894 37.8227 37.5698 36.0898 37.5698 33.9486C37.5695 33.1225 37.5416 32.3077 37.4869 31.5269Z" fill="#D2D2D2"/>
</g>
<defs>
<clipPath id="clip0_203_15">
<rect width="41" height="41" fill="white"/>
</clipPath>
</defs>
</svg>
