<svg width="19" height="19" viewBox="0 0 19 19" fill="none" xmlns="http://www.w3.org/2000/svg">
<g clip-path="url(#clip0_246_40)">
<path d="M18.0101 13.7102L15.4982 11.1982C14.601 10.3011 13.0759 10.66 12.7171 11.8262C12.4479 12.6337 11.5508 13.0822 10.7434 12.9028C8.94913 12.4542 6.52689 10.1217 6.07833 8.23772C5.80919 7.43027 6.34747 6.53314 7.15488 6.26404C8.32114 5.90519 8.68 4.38007 7.78287 3.48295L5.27092 0.970991C4.55321 0.343003 3.47666 0.343003 2.84867 0.970991L1.14413 2.67553C-0.560405 4.46978 1.32356 9.22455 5.54005 13.441C9.75655 17.6575 14.5113 19.6313 16.3056 17.837L18.0101 16.1324C18.6381 15.4147 18.6381 14.3382 18.0101 13.7102Z" fill="#A6A6A6"/>
</g>
<defs>
<clipPath id="clip0_246_40">
<rect width="18" height="18" fill="white" transform="translate(0.5 0.5)"/>
</clipPath>
</defs>
</svg>
