<svg width="10" height="10" viewBox="0 0 10 10" fill="none" xmlns="http://www.w3.org/2000/svg">
<g clip-path="url(#clip0_246_10)">
<path d="M5.27435 7.58656L9.88686 2.96126C10.0379 2.80972 10.0376 2.56437 9.88607 2.41308C9.73453 2.26191 9.48904 2.2623 9.33789 2.41386L4.99992 6.76385L0.661971 2.41371C0.5108 2.26216 0.265469 2.26177 0.113907 2.41292C0.0379305 2.48876 -5.81741e-05 2.58812 -5.81741e-05 2.68747C-5.81741e-05 2.78658 0.0376768 2.88554 0.113126 2.96124L4.72551 7.58656C4.79813 7.65955 4.89695 7.7005 4.99992 7.7005C5.10289 7.7005 5.2016 7.65943 5.27435 7.58656Z" fill="white"/>
</g>
<defs>
<clipPath id="clip0_246_10">
<rect width="10" height="10" fill="white" transform="matrix(0 1 -1 0 10 0)"/>
</clipPath>
</defs>
</svg>
